<?xml version="1.0" standalone="no"?>
<!DOCTYPE svg PUBLIC "-//W3C//DTD SVG 20010904//EN"
 "http://www.w3.org/TR/2001/REC-SVG-20010904/DTD/svg10.dtd">
<svg version="1.0" xmlns="http://www.w3.org/2000/svg"
 width="800.000000pt" height="800.000000pt" viewBox="0 0 800.000000 800.000000"
 preserveAspectRatio="xMidYMid meet">
<metadata>
Created by potrace 1.11, written by Peter Selinger 2001-2013
</metadata>
<g transform="translate(0.000000,800.000000) scale(0.100000,-0.100000)"
fill="#000000" stroke="none">
<path d="M1959 6683 c-45 -4 -52 -9 -173 -131 -69 -70 -469 -471 -890 -891
-617 -617 -763 -768 -756 -781 5 -9 6 -27 3 -40 -4 -15 -2 -21 4 -17 12 8 46
-27 36 -36 -11 -11 3707 -3730 3753 -3754 13 -7 36 -19 51 -27 26 -14 29 -12
137 88 111 101 1447 1435 2922 2916 l792 795 0 54 0 54 -351 354 c-192 194
-356 353 -363 353 -7 0 -19 10 -25 22 -7 13 -23 31 -37 42 -14 11 -131 128
-261 260 -594 604 -686 696 -715 707 -17 7 -34 18 -38 23 -5 8 -620 11 -2025
12 -1110 0 -2039 -1 -2064 -3z m1687 -76 l1481 -2 6 -554 c11 -916 6 -1602
-12 -1601 -8 1 -326 318 -724 723 -183 185 -339 337 -347 337 -8 0 -24 8 -35
17 l-20 16 20 -7 c16 -6 17 -5 8 5 -7 7 -32 13 -55 13 -42 1 -44 0 -265 -217
-122 -120 -239 -241 -260 -268 -20 -27 -45 -52 -56 -55 -10 -3 -22 -16 -27
-29 -5 -13 -22 -32 -37 -42 -33 -22 -69 -54 -74 -68 -2 -6 -114 -118 -248
-249 l-244 -239 -746 753 c-410 414 -746 758 -746 763 0 5 158 168 350 363
l350 354 100 -6 c55 -3 766 -6 1581 -7z m2419 -37 c16 -16 34 -30 41 -30 7 0
15 -8 18 -17 4 -10 124 -135 267 -278 144 -143 272 -274 286 -291 l23 -31 -64
-64 c-35 -35 -362 -365 -727 -734 -365 -368 -669 -674 -676 -678 -11 -7 -13
187 -13 1073 l0 1080 408 0 408 0 29 -30z m-4805 -767 c30 -32 43 -47 28 -34
-16 14 -28 21 -28 16 0 -9 423 -438 1081 -1097 l377 -376 45 0 c42 0 49 4 106
61 34 34 161 163 284 287 122 124 354 359 516 522 l294 297 31 -24 c17 -13
282 -278 589 -588 l557 -565 0 -101 c0 -70 -4 -101 -12 -101 -12 0 -106 94
-709 706 -211 215 -393 395 -404 401 -11 6 -38 8 -60 5 -37 -4 -77 -43 -614
-579 -527 -526 -616 -612 -609 -584 4 12 -1123 1131 -1133 1126 -4 -3 -12 2
-19 10 -7 8 -9 15 -4 15 5 0 -20 29 -56 65 -35 35 -67 62 -70 60 -4 -3 -15 4
-25 15 -10 11 -14 20 -9 20 5 0 -71 80 -170 179 l-178 178 69 70 c37 39 68 71
68 72 1 0 25 -25 55 -56z m5573 -4 l51 -50 -830 -830 -829 -829 -3 117 c-3
116 -2 118 23 136 14 10 25 23 25 29 0 6 96 103 213 216 116 114 451 444 743
734 292 290 537 528 544 528 7 0 36 -23 63 -51z m605 -603 c177 -179 322 -331
322 -337 0 -6 -262 -275 -582 -598 -321 -323 -597 -603 -613 -622 -17 -19 -43
-42 -58 -52 -15 -10 -39 -35 -53 -56 -14 -22 -34 -41 -46 -44 -11 -3 -17 -10
-14 -16 4 -6 -7 -17 -24 -26 -16 -8 -30 -22 -30 -30 0 -8 -13 -21 -29 -29 -16
-9 -31 -25 -34 -37 -3 -12 -10 -18 -17 -14 -7 4 -14 -1 -17 -14 -3 -11 -14
-23 -24 -26 -10 -4 -19 -10 -19 -13 0 -6 -222 -233 -302 -309 -7 -7 -375 -374
-818 -815 -916 -913 -1083 -1078 -1086 -1075 -2 1 -132 130 -291 287 -158 157
-382 378 -498 492 -115 113 -237 233 -269 267 -33 34 -63 61 -68 61 -5 0 -13
11 -18 25 -5 14 -16 25 -25 25 -8 0 -15 4 -15 8 0 5 -28 35 -61 68 -92 88
-101 97 -139 140 -19 21 -53 55 -75 75 -22 20 -56 54 -76 75 -20 21 -56 58
-80 80 -114 107 -2154 2166 -2154 2174 0 12 772 790 784 790 5 0 172 -161 372
-357 199 -197 421 -415 493 -485 182 -175 269 -263 355 -357 40 -45 77 -81 81
-81 4 0 96 -88 205 -195 109 -107 204 -195 210 -195 7 0 16 -11 19 -25 4 -15
170 -190 410 -433 222 -224 485 -489 584 -590 173 -174 212 -204 225 -169 4
10 7 10 18 0 17 -17 34 -17 20 0 -8 11 -3 19 22 37 30 22 31 22 13 2 -11 -12
-17 -24 -14 -27 10 -10 321 291 726 702 375 381 459 473 432 473 -23 0 5 30
29 30 21 1 189 163 881 849 l855 849 85 -78 c47 -43 230 -224 408 -404z
m-3327 237 c13 -16 12 -17 -3 -4 -10 7 -18 15 -18 17 0 8 8 3 21 -13z m154
-153 c10 -11 16 -20 13 -20 -3 0 -13 9 -23 20 -10 11 -16 20 -13 20 3 0 13 -9
23 -20z m-225 -115 c19 -19 32 -35 29 -35 -3 0 -20 16 -39 35 -19 19 -32 35
-29 35 3 0 20 -16 39 -35z m-35 -25 c3 -5 1 -10 -4 -10 -6 0 -11 5 -11 10 0 6
2 10 4 10 3 0 8 -4 11 -10z m138 -171 c92 -88 167 -157 167 -153 0 4 9 -1 20
-11 11 -10 18 -21 15 -24 -2 -4 95 -108 216 -232 120 -123 223 -227 227 -232
4 -4 18 -18 32 -31 14 -12 43 -44 64 -69 22 -26 46 -47 53 -47 7 0 13 -4 13
-9 0 -5 36 -48 80 -94 44 -47 80 -89 80 -94 0 -4 -256 -267 -569 -583 l-569
-575 -151 150 c-83 83 -156 149 -161 147 -6 -1 -9 2 -8 7 2 5 -184 199 -412
431 -228 233 -416 426 -418 430 -3 9 1133 1150 1146 1150 5 0 84 -72 175 -161z
m-3949 -32 c-22 -24 -41 -42 -43 -40 -5 3 70 83 77 83 3 0 -13 -19 -34 -43z
m4456 -112 c13 -14 21 -25 18 -25 -2 0 -15 11 -28 25 -13 14 -21 25 -18 25 2
0 15 -11 28 -25z m-4435 -55 c10 -11 16 -20 13 -20 -3 0 -13 9 -23 20 -10 11
-16 20 -13 20 3 0 13 -9 23 -20z m4913 -780 c-2 -7 -21 11 -42 41 l-38 54 42
-41 c23 -23 41 -47 38 -54z m-1317 -2757 c13 -16 12 -17 -3 -4 -17 13 -22 21
-14 21 2 0 10 -8 17 -17z m93 -92 c-2 -3 -12 3 -22 13 -16 17 -16 18 5 5 12
-7 20 -15 17 -18z m62 -52 c24 -26 25 -30 7 -20 -13 6 -27 20 -33 31 -15 28
-8 25 26 -11z"/>
<path d="M1420 5356 c0 -2 8 -10 18 -17 15 -13 16 -12 3 4 -13 16 -21 21 -21
13z"/>
<path d="M4310 4806 c0 -2 8 -10 18 -17 15 -13 16 -12 3 4 -13 16 -21 21 -21
13z"/>
</g>
</svg>
